<?xml version="1.0" encoding="UTF-8" standalone="no"?>
<!DOCTYPE svg PUBLIC "-//W3C//DTD SVG 1.1//EN" "http://www.w3.org/Graphics/SVG/1.1/DTD/svg11.dtd">
<svg width="100%" height="100%" viewBox="0 0 349 424" version="1.1" xmlns="http://www.w3.org/2000/svg" xmlns:xlink="http://www.w3.org/1999/xlink" xml:space="preserve" xmlns:serif="http://www.serif.com/" style="fill-rule:evenodd;clip-rule:evenodd;stroke-linejoin:round;stroke-miterlimit:2;">
    <g transform="matrix(1,0,0,1,-337.350589,-189.579746)">
        <path d="M511.405,189.744C555.124,188.829 621.103,202.061 677.232,234.953C688.332,241.458 686.127,243.73 686.111,256.5C685.941,391.798 697.959,526.341 516.289,612.025C507.213,616.306 498.793,608.361 497.676,607.307C495.748,605.488 495.953,462.415 492.535,419.498C492.194,415.219 519.925,398.431 550.502,399.381C616.764,401.44 594.626,443.227 603.464,444.716C614.336,446.548 624.713,441.329 618.132,450.235C585.751,494.055 586.367,495.888 584.642,495.103C582.335,494.054 551.605,450.311 548.823,446.351C546.974,443.719 550.095,444.989 566.51,444.591C573.706,444.416 560.353,409.223 547.536,410.84C528.411,413.252 530.21,442.184 529.246,489.491C527.49,575.628 527.315,578.203 529.293,577.053C591.886,540.677 638.101,492.524 653.664,414.532C662.821,368.64 660.191,255.444 659.25,254.808C606.234,219.001 524.693,215.601 512.545,215.094C512.375,210.231 512.205,205.367 512.035,200.504L512.012,197.503C511.842,193.481 512.231,193.558 511.405,189.744Z" style="fill:rgb(39,132,188);"/>
    </g>
    <g transform="matrix(1,0,0,1,-337.350589,-189.579746)">
        <path d="M511.405,189.744C512.231,193.558 511.842,193.481 512.012,197.503C512.019,198.503 512.027,199.503 512.035,200.504C512.205,205.367 512.375,210.231 512.545,215.094C499.711,215.601 452.535,214.378 389.718,241.994C362.769,253.842 363.324,256.173 363.323,261.503C363.283,421.385 364.549,492.006 481.267,568.828C483.499,570.297 483.086,584.181 483.046,585.524C482.742,595.71 485.762,601.565 479.757,598.033C411.184,557.702 376.97,514.295 355.981,459.323C349.773,443.063 334.566,403.233 337.795,242.522C337.988,232.944 440.759,186.477 511.405,189.744Z" style="fill:rgb(236,114,46);"/>
    </g>
    <g transform="matrix(1,0,0,1,-337.350589,-189.579746)">
        <path d="M458.404,538.631C387.498,479.618 420.521,414.337 445.917,390.936C511.877,330.155 595.372,397.499 578.5,392.343C496.245,367.204 419.899,441.374 481.209,501.746C484.106,504.599 483.07,505.171 482.787,552.545C482.774,554.791 480.345,555.27 458.404,538.631Z" style="fill:rgb(235,99,45);"/>
    </g>
    <g transform="matrix(1,0,0,1,-337.350589,-189.579746)">
        <path d="M500.085,323.39C499.99,324.298 498.337,340.094 496.809,334.321C496.609,333.566 493.031,320.05 491.124,326.388C487.626,338.01 481.707,337.703 486.967,354.411C487.11,354.866 477.126,363.77 469.655,356.331C441.342,328.143 468.874,300.509 472.216,277.371C472.617,274.595 479.849,280.752 481.765,289.432C483.222,296.03 484.205,302.893 486.406,296.46C488.276,290.996 485.607,279.969 494.83,266.737C503.31,254.572 512.263,247.995 508.689,228.482C507.759,223.4 530.564,237.903 531.091,264.521C531.692,294.86 539.971,293.161 541.097,291.181C541.39,290.666 545.072,272.673 548.091,274.952C549.365,275.914 547.792,276.855 557.029,292.791C582.066,335.986 552.453,360.566 548.555,359.314C540.914,356.859 536.249,359.113 538.416,351.479C541.778,339.633 530.726,320.887 529.407,324.418C526.436,332.365 525.149,331.752 524.618,331.338C521.201,328.676 519.464,298.949 510.477,298.65C508.732,298.592 512.672,301.291 501.944,318.735C501.734,319.076 501.806,319.08 500.085,323.39Z" style="fill:rgb(239,129,42);"/>
    </g>
</svg>
